<?xml version="1.0" encoding="UTF-8"?>
<svg id="Ebene_1" data-name="Ebene 1" xmlns="http://www.w3.org/2000/svg" viewBox="0 0 207.84 90.68">
  <defs>
    <style>
      .cls-1 {
        fill: #fcfbf5;
      }
    </style>
  </defs>
  <g>
    <path class="cls-1" d="M102.72,20.49c6.66,0,11.81,5.11,11.81,12.86s-5.2,13.08-11.81,13.08c-4.15,0-7.11-1.87-8.75-4.06v3.65h-5.2V12.29h5.2v12.36c1.64-2.28,4.79-4.15,8.75-4.15ZM101.58,25.01c-3.88,0-7.61,3.05-7.61,8.44s3.74,8.48,7.61,8.48,7.66-3.15,7.66-8.57-3.74-8.34-7.66-8.34Z"/>
    <path class="cls-1" d="M129.81,20.49c4.24,0,7.16,2.01,8.71,4.06v-3.65h5.24v25.12h-5.24v-3.74c-1.6,2.14-4.61,4.15-8.8,4.15-6.52,0-11.76-5.33-11.76-13.08s5.24-12.86,11.85-12.86ZM130.91,25.01c-3.88,0-7.61,2.92-7.61,8.34s3.74,8.57,7.61,8.57,7.61-3.05,7.61-8.48-3.69-8.44-7.61-8.44Z"/>
    <path class="cls-1" d="M168.43,31.98c0-4.6-2.51-6.98-6.29-6.98s-6.34,2.37-6.34,6.98v14.04h-5.2v-25.12h5.2v2.87c1.69-2.05,4.47-3.28,7.48-3.28,5.88,0,10.3,3.69,10.3,10.71v14.82h-5.15v-14.04Z"/>
    <path class="cls-1" d="M190.37,20.49c3.28,0,6.75,1.55,8.66,3.92v-12.13h5.24v33.74h-5.24v-3.78c-1.6,2.28-4.6,4.19-8.71,4.19-6.61,0-11.85-5.33-11.85-13.08s5.24-12.86,11.9-12.86ZM191.42,25.01c-3.88,0-7.61,2.92-7.61,8.34s3.74,8.57,7.61,8.57,7.61-3.05,7.61-8.48-3.69-8.44-7.61-8.44Z"/>
    <path class="cls-1" d="M124.38,63.9c0-4.6-2.51-6.98-6.29-6.98s-6.34,2.37-6.34,6.98v14.04h-5.15v-14.04c0-4.6-2.51-6.98-6.29-6.98s-6.34,2.37-6.34,6.98v14.04h-5.2v-25.12h5.2v2.87c1.69-2.05,4.42-3.28,7.43-3.28,3.97,0,7.29,1.69,9.03,4.97,1.55-3.05,5.11-4.97,8.75-4.97,5.88,0,10.35,3.69,10.35,10.71v14.82h-5.15v-14.04Z"/>
    <path class="cls-1" d="M146.27,52.41c4.24,0,7.16,2.01,8.71,4.06v-3.65h5.24v25.12h-5.24v-3.74c-1.6,2.14-4.61,4.15-8.8,4.15-6.52,0-11.76-5.33-11.76-13.08s5.24-12.86,11.85-12.86ZM147.37,56.93c-3.88,0-7.61,2.92-7.61,8.34s3.74,8.57,7.61,8.57,7.61-3.05,7.61-8.48-3.69-8.43-7.61-8.43Z"/>
    <path class="cls-1" d="M167.89,57.06h-2.96v-4.24h2.96v-6.25h5.24v6.25h6.11v4.24h-6.11v13.91c0,1.87.73,2.64,2.92,2.64h3.19v4.33h-4.1c-4.47,0-7.25-1.87-7.25-6.98v-13.91Z"/>
    <path class="cls-1" d="M194.84,78.36c-7.2,0-12.54-5.11-12.54-12.99s5.11-12.95,12.54-12.95,12.22,4.97,12.22,12.36c0,.87-.05,1.69-.18,2.55h-19.19c.36,4.15,3.33,6.66,7.16,6.66,3.19,0,4.97-1.55,5.93-3.51h5.61c-1.41,4.38-5.38,7.89-11.53,7.89ZM187.72,63.13h13.91c-.09-3.88-3.15-6.34-7.02-6.34-3.51,0-6.34,2.37-6.88,6.34Z"/>
  </g>
  <path class="cls-1" d="M75.04,19.45c-1.94-9.35-12.71-14.16-12.71-14.16-27.72-11.42-48.54,0-48.54,0C3.91,9.22,1,19.1,1,19.1c-3.37,11.34,3.9,29.64,11.04,42.15.85-1.93,2.49-3.6,4.72-4.52,1.8-.74,3.66-.84,5.35-.46l.08-21.49h-.03s0-12.44,0-12.44l34.71-11.21-.02,7.15h.04s-.13,33.68-.13,33.68h-.01c0,3.51-2.77,6.75-6.75,7.59-4.5.95-8.83-1.53-9.68-5.54-.84-4.01,2.12-8.02,6.62-8.97,1.44-.3,2.86-.22,4.15.12l.07-19.99-23.29,7.73-.11,30h-.03c.04,3.1-2,6.18-5.35,7.55-1.37.56-2.79.74-4.13.64,7.13,10.36,15.69,20.13,20.01,19.41,5.32-.89,8.8-3.17,23.01-24.62,14.21-21.45,15.71-37.07,13.77-46.42Z"/>
</svg>