<?xml version="1.0" encoding="UTF-8"?>
<svg id="Ebene_1" data-name="Ebene 1" xmlns="http://www.w3.org/2000/svg" viewBox="0 0 76.56 90.68">
  <defs>
    <style>
      .cls-1 {
        fill: #fcfbf5;
      }
    </style>
  </defs>
  <path class="cls-1" d="M75.04,19.45c-1.94-9.35-12.71-14.16-12.71-14.16-27.72-11.42-48.54,0-48.54,0C3.91,9.22,1,19.1,1,19.1c-3.37,11.34,3.9,29.64,11.04,42.15.85-1.93,2.49-3.6,4.72-4.52,1.8-.74,3.66-.84,5.35-.46l.08-21.49h-.03s0-12.44,0-12.44l34.71-11.21-.02,7.15h.04s-.13,33.68-.13,33.68h-.01c0,3.51-2.77,6.75-6.75,7.59-4.5.95-8.83-1.53-9.68-5.54-.84-4.01,2.12-8.02,6.62-8.97,1.44-.3,2.86-.22,4.15.12l.07-19.99-23.29,7.73-.11,30h-.03c.04,3.1-2,6.18-5.35,7.55-1.37.56-2.79.74-4.13.64,7.13,10.36,15.69,20.13,20.01,19.41,5.32-.89,8.8-3.17,23.01-24.62,14.21-21.45,15.71-37.07,13.77-46.42Z"/>
</svg>